<mxfile host="app.diagrams.net" modified="2023-12-12T16:54:18.652Z" agent="Mozilla/5.0 (Windows NT 10.0; Win64; x64; rv:120.0) Gecko/20100101 Firefox/120.0" etag="tTkE1dJSI1Y5JOtPyEUc" version="22.1.7" type="device">
  <diagram name="Страница — 1" id="YGJfe8i6XJVelw0MhdK4">
    <mxGraphModel dx="1750" dy="818" grid="0" gridSize="10" guides="1" tooltips="1" connect="1" arrows="1" fold="1" page="1" pageScale="1" pageWidth="4681" pageHeight="3300" background="#000000" math="0" shadow="0">
      <root>
        <mxCell id="0" />
        <mxCell id="1" parent="0" />
        <mxCell id="cL92abnfTv1H09jEHnF7-6" style="edgeStyle=orthogonalEdgeStyle;rounded=0;orthogonalLoop=1;jettySize=auto;html=1;exitX=0.5;exitY=1;exitDx=0;exitDy=0;entryX=0.5;entryY=0;entryDx=0;entryDy=0;strokeColor=#FFFFFF;endArrow=none;endFill=0;" edge="1" parent="1" source="cL92abnfTv1H09jEHnF7-4" target="cL92abnfTv1H09jEHnF7-5">
          <mxGeometry relative="1" as="geometry" />
        </mxCell>
        <mxCell id="cL92abnfTv1H09jEHnF7-4" value="&lt;font color=&quot;#ffffff&quot;&gt;Даниэль&lt;/font&gt;" style="text;html=1;strokeColor=none;fillColor=none;align=center;verticalAlign=middle;whiteSpace=wrap;rounded=0;" vertex="1" parent="1">
          <mxGeometry x="877" y="444" width="60" height="30" as="geometry" />
        </mxCell>
        <mxCell id="cL92abnfTv1H09jEHnF7-5" value="&lt;font color=&quot;#ffffff&quot;&gt;Инес&lt;/font&gt;" style="text;html=1;strokeColor=none;fillColor=none;align=center;verticalAlign=middle;whiteSpace=wrap;rounded=0;" vertex="1" parent="1">
          <mxGeometry x="877" y="521" width="60" height="30" as="geometry" />
        </mxCell>
        <mxCell id="cL92abnfTv1H09jEHnF7-10" style="edgeStyle=orthogonalEdgeStyle;rounded=0;orthogonalLoop=1;jettySize=auto;html=1;exitX=0.5;exitY=1;exitDx=0;exitDy=0;entryX=0.5;entryY=0;entryDx=0;entryDy=0;endArrow=none;endFill=0;strokeColor=#ffffff;" edge="1" parent="1" source="cL92abnfTv1H09jEHnF7-8" target="cL92abnfTv1H09jEHnF7-9">
          <mxGeometry relative="1" as="geometry" />
        </mxCell>
        <mxCell id="cL92abnfTv1H09jEHnF7-14" style="edgeStyle=orthogonalEdgeStyle;rounded=1;orthogonalLoop=1;jettySize=auto;html=1;exitX=0.5;exitY=1;exitDx=0;exitDy=0;entryX=0.5;entryY=1;entryDx=0;entryDy=0;strokeColor=#FFFFFF;endArrow=none;endFill=0;" edge="1" parent="1" source="cL92abnfTv1H09jEHnF7-9" target="cL92abnfTv1H09jEHnF7-12">
          <mxGeometry relative="1" as="geometry" />
        </mxCell>
        <mxCell id="cL92abnfTv1H09jEHnF7-9" value="&lt;font color=&quot;#ffffff&quot;&gt;Ханна Крюгер&lt;br&gt;&lt;/font&gt;" style="text;html=1;strokeColor=none;fillColor=none;align=center;verticalAlign=middle;whiteSpace=wrap;rounded=0;" vertex="1" parent="1">
          <mxGeometry x="975.5" y="719" width="60" height="30" as="geometry" />
        </mxCell>
        <mxCell id="cL92abnfTv1H09jEHnF7-41" style="edgeStyle=orthogonalEdgeStyle;rounded=0;orthogonalLoop=1;jettySize=auto;html=1;exitX=0.5;exitY=0;exitDx=0;exitDy=0;endArrow=none;endFill=0;strokeColor=#FFFFFF;" edge="1" parent="1" source="cL92abnfTv1H09jEHnF7-12">
          <mxGeometry relative="1" as="geometry">
            <mxPoint x="1204" y="667" as="targetPoint" />
          </mxGeometry>
        </mxCell>
        <mxCell id="cL92abnfTv1H09jEHnF7-12" value="&lt;font color=&quot;#ffffff&quot;&gt;Михаэль&lt;/font&gt;" style="text;html=1;strokeColor=none;fillColor=none;align=center;verticalAlign=middle;whiteSpace=wrap;rounded=0;" vertex="1" parent="1">
          <mxGeometry x="1134.5" y="723" width="60" height="30" as="geometry" />
        </mxCell>
        <mxCell id="cL92abnfTv1H09jEHnF7-15" style="edgeStyle=orthogonalEdgeStyle;rounded=0;orthogonalLoop=1;jettySize=auto;html=1;exitX=0.5;exitY=0;exitDx=0;exitDy=0;endArrow=none;endFill=0;strokeColor=#FFFFFF;" edge="1" parent="1" source="cL92abnfTv1H09jEHnF7-13">
          <mxGeometry relative="1" as="geometry">
            <mxPoint x="1107.8333333333335" y="774.5" as="targetPoint" />
          </mxGeometry>
        </mxCell>
        <mxCell id="cL92abnfTv1H09jEHnF7-13" value="&lt;font color=&quot;#ffffff&quot;&gt;Йонас&lt;/font&gt;" style="text;html=1;strokeColor=none;fillColor=none;align=center;verticalAlign=middle;whiteSpace=wrap;rounded=0;" vertex="1" parent="1">
          <mxGeometry x="1077.5" y="817" width="60" height="30" as="geometry" />
        </mxCell>
        <mxCell id="cL92abnfTv1H09jEHnF7-19" style="edgeStyle=orthogonalEdgeStyle;rounded=1;orthogonalLoop=1;jettySize=auto;html=1;exitX=0.5;exitY=1;exitDx=0;exitDy=0;entryX=0.5;entryY=1;entryDx=0;entryDy=0;strokeColor=#FFFFFF;endArrow=none;endFill=0;" edge="1" parent="1" source="cL92abnfTv1H09jEHnF7-16" target="cL92abnfTv1H09jEHnF7-17">
          <mxGeometry relative="1" as="geometry" />
        </mxCell>
        <mxCell id="cL92abnfTv1H09jEHnF7-16" value="&lt;font color=&quot;#ffffff&quot;&gt;Адам&lt;/font&gt;" style="text;html=1;strokeColor=none;fillColor=none;align=center;verticalAlign=middle;whiteSpace=wrap;rounded=0;" vertex="1" parent="1">
          <mxGeometry x="968" y="366" width="60" height="30" as="geometry" />
        </mxCell>
        <mxCell id="cL92abnfTv1H09jEHnF7-17" value="&lt;font color=&quot;#ffffff&quot;&gt;Ева&lt;/font&gt;" style="text;html=1;strokeColor=none;fillColor=none;align=center;verticalAlign=middle;whiteSpace=wrap;rounded=0;" vertex="1" parent="1">
          <mxGeometry x="1066" y="366" width="60" height="30" as="geometry" />
        </mxCell>
        <mxCell id="cL92abnfTv1H09jEHnF7-20" style="edgeStyle=orthogonalEdgeStyle;rounded=0;orthogonalLoop=1;jettySize=auto;html=1;exitX=0.5;exitY=0;exitDx=0;exitDy=0;endArrow=none;endFill=0;strokeColor=#FFFFFF;" edge="1" parent="1" source="cL92abnfTv1H09jEHnF7-18">
          <mxGeometry relative="1" as="geometry">
            <mxPoint x="1051.2" y="416.4" as="targetPoint" />
          </mxGeometry>
        </mxCell>
        <mxCell id="cL92abnfTv1H09jEHnF7-24" style="edgeStyle=orthogonalEdgeStyle;rounded=1;orthogonalLoop=1;jettySize=auto;html=1;exitX=0.5;exitY=1;exitDx=0;exitDy=0;entryX=0.5;entryY=1;entryDx=0;entryDy=0;strokeColor=#FFFFFF;endArrow=none;endFill=0;" edge="1" parent="1" source="cL92abnfTv1H09jEHnF7-18" target="cL92abnfTv1H09jEHnF7-23">
          <mxGeometry relative="1" as="geometry" />
        </mxCell>
        <mxCell id="cL92abnfTv1H09jEHnF7-18" value="&lt;font color=&quot;#ffffff&quot;&gt;Безымянный&lt;/font&gt;" style="text;html=1;strokeColor=none;fillColor=none;align=center;verticalAlign=middle;whiteSpace=wrap;rounded=0;" vertex="1" parent="1">
          <mxGeometry x="1021" y="444" width="60" height="30" as="geometry" />
        </mxCell>
        <mxCell id="cL92abnfTv1H09jEHnF7-25" style="edgeStyle=orthogonalEdgeStyle;rounded=0;orthogonalLoop=1;jettySize=auto;html=1;exitX=0.5;exitY=0;exitDx=0;exitDy=0;strokeColor=#FFFFFF;endArrow=none;endFill=0;" edge="1" parent="1" source="cL92abnfTv1H09jEHnF7-21">
          <mxGeometry relative="1" as="geometry">
            <mxPoint x="1106" y="495.6" as="targetPoint" />
          </mxGeometry>
        </mxCell>
        <mxCell id="cL92abnfTv1H09jEHnF7-29" style="edgeStyle=orthogonalEdgeStyle;rounded=0;orthogonalLoop=1;jettySize=auto;html=1;exitX=0.5;exitY=1;exitDx=0;exitDy=0;entryX=0.5;entryY=1;entryDx=0;entryDy=0;" edge="1" parent="1" source="cL92abnfTv1H09jEHnF7-21" target="cL92abnfTv1H09jEHnF7-26">
          <mxGeometry relative="1" as="geometry" />
        </mxCell>
        <mxCell id="cL92abnfTv1H09jEHnF7-31" style="edgeStyle=orthogonalEdgeStyle;rounded=1;orthogonalLoop=1;jettySize=auto;html=1;exitX=0.5;exitY=1;exitDx=0;exitDy=0;entryX=0.5;entryY=1;entryDx=0;entryDy=0;endArrow=none;endFill=0;strokeColor=#ffffff;" edge="1" parent="1" source="cL92abnfTv1H09jEHnF7-21" target="cL92abnfTv1H09jEHnF7-26">
          <mxGeometry relative="1" as="geometry" />
        </mxCell>
        <mxCell id="cL92abnfTv1H09jEHnF7-21" value="&lt;font color=&quot;#ffffff&quot;&gt;Тронте&lt;/font&gt;" style="text;html=1;strokeColor=none;fillColor=none;align=center;verticalAlign=middle;whiteSpace=wrap;rounded=0;" vertex="1" parent="1">
          <mxGeometry x="1076" y="519" width="60" height="30" as="geometry" />
        </mxCell>
        <mxCell id="cL92abnfTv1H09jEHnF7-54" style="edgeStyle=orthogonalEdgeStyle;rounded=0;orthogonalLoop=1;jettySize=auto;html=1;strokeColor=#FFFFFF;endArrow=none;endFill=0;" edge="1" parent="1">
          <mxGeometry relative="1" as="geometry">
            <mxPoint x="1169.142857142857" y="415" as="targetPoint" />
            <mxPoint x="1162" y="444" as="sourcePoint" />
            <Array as="points">
              <mxPoint x="1162" y="430" />
              <mxPoint x="1169" y="430" />
            </Array>
          </mxGeometry>
        </mxCell>
        <mxCell id="cL92abnfTv1H09jEHnF7-23" value="&lt;font color=&quot;#ffffff&quot;&gt;Агнес&lt;/font&gt;" style="text;html=1;strokeColor=none;fillColor=none;align=center;verticalAlign=middle;whiteSpace=wrap;rounded=0;" vertex="1" parent="1">
          <mxGeometry x="1132" y="444" width="60" height="30" as="geometry" />
        </mxCell>
        <mxCell id="cL92abnfTv1H09jEHnF7-26" value="&lt;font color=&quot;#ffffff&quot;&gt;Яна&lt;/font&gt;" style="text;html=1;strokeColor=none;fillColor=none;align=center;verticalAlign=middle;whiteSpace=wrap;rounded=0;" vertex="1" parent="1">
          <mxGeometry x="1167" y="519" width="60" height="30" as="geometry" />
        </mxCell>
        <mxCell id="cL92abnfTv1H09jEHnF7-32" style="edgeStyle=orthogonalEdgeStyle;rounded=0;orthogonalLoop=1;jettySize=auto;html=1;exitX=0.5;exitY=0;exitDx=0;exitDy=0;" edge="1" parent="1" source="cL92abnfTv1H09jEHnF7-27">
          <mxGeometry relative="1" as="geometry">
            <mxPoint x="1154.1666666666667" y="569.3333333333334" as="targetPoint" />
          </mxGeometry>
        </mxCell>
        <mxCell id="cL92abnfTv1H09jEHnF7-34" style="edgeStyle=orthogonalEdgeStyle;rounded=0;orthogonalLoop=1;jettySize=auto;html=1;exitX=0.5;exitY=0;exitDx=0;exitDy=0;endArrow=none;endFill=0;strokeColor=#FFFFFF;" edge="1" parent="1" source="cL92abnfTv1H09jEHnF7-27">
          <mxGeometry relative="1" as="geometry">
            <mxPoint x="1120" y="569" as="targetPoint" />
            <Array as="points">
              <mxPoint x="1120" y="569" />
            </Array>
          </mxGeometry>
        </mxCell>
        <mxCell id="cL92abnfTv1H09jEHnF7-27" value="&lt;font color=&quot;#ffffff&quot;&gt;Мадс&lt;/font&gt;" style="text;html=1;strokeColor=none;fillColor=none;align=center;verticalAlign=middle;whiteSpace=wrap;rounded=0;" vertex="1" parent="1">
          <mxGeometry x="1090" y="615" width="60" height="30" as="geometry" />
        </mxCell>
        <mxCell id="cL92abnfTv1H09jEHnF7-35" style="edgeStyle=orthogonalEdgeStyle;rounded=0;orthogonalLoop=1;jettySize=auto;html=1;exitX=0.5;exitY=0;exitDx=0;exitDy=0;endArrow=none;endFill=0;strokeColor=#FFFFFF;" edge="1" parent="1" source="cL92abnfTv1H09jEHnF7-28">
          <mxGeometry relative="1" as="geometry">
            <mxPoint x="1184" y="569.6666666666666" as="targetPoint" />
          </mxGeometry>
        </mxCell>
        <mxCell id="cL92abnfTv1H09jEHnF7-40" style="edgeStyle=orthogonalEdgeStyle;rounded=1;orthogonalLoop=1;jettySize=auto;html=1;exitX=0.5;exitY=1;exitDx=0;exitDy=0;entryX=0.5;entryY=1;entryDx=0;entryDy=0;strokeColor=#FFFFFF;endArrow=none;endFill=0;" edge="1" parent="1" source="cL92abnfTv1H09jEHnF7-28" target="cL92abnfTv1H09jEHnF7-36">
          <mxGeometry relative="1" as="geometry" />
        </mxCell>
        <mxCell id="cL92abnfTv1H09jEHnF7-28" value="&lt;font color=&quot;#ffffff&quot;&gt;Ульрих&lt;/font&gt;" style="text;html=1;strokeColor=none;fillColor=none;align=center;verticalAlign=middle;whiteSpace=wrap;rounded=0;" vertex="1" parent="1">
          <mxGeometry x="1154" y="615" width="60" height="30" as="geometry" />
        </mxCell>
        <mxCell id="cL92abnfTv1H09jEHnF7-48" style="edgeStyle=orthogonalEdgeStyle;rounded=0;orthogonalLoop=1;jettySize=auto;html=1;exitX=0.5;exitY=0;exitDx=0;exitDy=0;endArrow=none;endFill=0;strokeColor=#FFFFFF;" edge="1" parent="1" source="cL92abnfTv1H09jEHnF7-36">
          <mxGeometry relative="1" as="geometry">
            <mxPoint x="1274.857142857143" y="569.2857142857143" as="targetPoint" />
          </mxGeometry>
        </mxCell>
        <mxCell id="cL92abnfTv1H09jEHnF7-36" value="&lt;font color=&quot;#ffffff&quot;&gt;Катарина&lt;/font&gt;" style="text;html=1;strokeColor=none;fillColor=none;align=center;verticalAlign=middle;whiteSpace=wrap;rounded=0;" vertex="1" parent="1">
          <mxGeometry x="1245" y="617" width="60" height="28" as="geometry" />
        </mxCell>
        <mxCell id="cL92abnfTv1H09jEHnF7-43" style="edgeStyle=orthogonalEdgeStyle;rounded=0;orthogonalLoop=1;jettySize=auto;html=1;exitX=0.5;exitY=0;exitDx=0;exitDy=0;strokeColor=#FFFFFF;endArrow=none;endFill=0;" edge="1" parent="1" source="cL92abnfTv1H09jEHnF7-37">
          <mxGeometry relative="1" as="geometry">
            <mxPoint x="1260.8" y="665.6" as="targetPoint" />
          </mxGeometry>
        </mxCell>
        <mxCell id="cL92abnfTv1H09jEHnF7-37" value="&lt;font color=&quot;#ffffff&quot;&gt;Марта&lt;/font&gt;" style="text;html=1;strokeColor=none;fillColor=none;align=center;verticalAlign=middle;whiteSpace=wrap;rounded=0;" vertex="1" parent="1">
          <mxGeometry x="1271" y="724" width="60" height="30" as="geometry" />
        </mxCell>
        <mxCell id="cL92abnfTv1H09jEHnF7-42" style="edgeStyle=orthogonalEdgeStyle;rounded=0;orthogonalLoop=1;jettySize=auto;html=1;exitX=0.5;exitY=0;exitDx=0;exitDy=0;strokeColor=#FFFFFF;endArrow=none;endFill=0;" edge="1" parent="1" source="cL92abnfTv1H09jEHnF7-38">
          <mxGeometry relative="1" as="geometry">
            <mxPoint x="1233" y="667" as="targetPoint" />
            <Array as="points">
              <mxPoint x="1233" y="725" />
            </Array>
          </mxGeometry>
        </mxCell>
        <mxCell id="cL92abnfTv1H09jEHnF7-38" value="&lt;font color=&quot;#ffffff&quot;&gt;Магнус&lt;/font&gt;" style="text;html=1;strokeColor=none;fillColor=none;align=center;verticalAlign=middle;whiteSpace=wrap;rounded=0;" vertex="1" parent="1">
          <mxGeometry x="1203" y="725" width="60" height="30" as="geometry" />
        </mxCell>
        <mxCell id="cL92abnfTv1H09jEHnF7-44" value="&lt;font color=&quot;#ffffff&quot;&gt;Хелена&lt;/font&gt;" style="text;html=1;strokeColor=none;fillColor=none;align=center;verticalAlign=middle;whiteSpace=wrap;rounded=0;" vertex="1" parent="1">
          <mxGeometry x="1331" y="519" width="60" height="30" as="geometry" />
        </mxCell>
        <mxCell id="cL92abnfTv1H09jEHnF7-47" style="edgeStyle=orthogonalEdgeStyle;rounded=1;orthogonalLoop=1;jettySize=auto;html=1;exitX=0.5;exitY=1;exitDx=0;exitDy=0;entryX=0.5;entryY=1;entryDx=0;entryDy=0;strokeColor=#ffffff;endArrow=none;endFill=0;" edge="1" parent="1" source="cL92abnfTv1H09jEHnF7-45" target="cL92abnfTv1H09jEHnF7-44">
          <mxGeometry relative="1" as="geometry" />
        </mxCell>
        <mxCell id="cL92abnfTv1H09jEHnF7-45" value="&lt;font color=&quot;#ffffff&quot;&gt;Герман&lt;/font&gt;" style="text;html=1;strokeColor=none;fillColor=none;align=center;verticalAlign=middle;whiteSpace=wrap;rounded=0;" vertex="1" parent="1">
          <mxGeometry x="1234" y="519" width="60" height="30" as="geometry" />
        </mxCell>
        <mxCell id="cL92abnfTv1H09jEHnF7-50" value="&lt;font color=&quot;#ffffff&quot;&gt;Силья&lt;br&gt;&lt;/font&gt;" style="text;html=1;strokeColor=none;fillColor=none;align=center;verticalAlign=middle;whiteSpace=wrap;rounded=0;" vertex="1" parent="1">
          <mxGeometry x="1220" y="365" width="60" height="30" as="geometry" />
        </mxCell>
        <mxCell id="cL92abnfTv1H09jEHnF7-51" style="edgeStyle=orthogonalEdgeStyle;rounded=1;orthogonalLoop=1;jettySize=auto;html=1;exitX=0.5;exitY=1;exitDx=0;exitDy=0;entryX=0.5;entryY=1;entryDx=0;entryDy=0;strokeColor=#ffffff;endArrow=none;endFill=0;" edge="1" parent="1" source="cL92abnfTv1H09jEHnF7-52" target="cL92abnfTv1H09jEHnF7-50">
          <mxGeometry relative="1" as="geometry" />
        </mxCell>
        <mxCell id="cL92abnfTv1H09jEHnF7-52" value="&lt;font color=&quot;#ffffff&quot;&gt;Бартош&lt;/font&gt;" style="text;html=1;strokeColor=none;fillColor=none;align=center;verticalAlign=middle;whiteSpace=wrap;rounded=0;" vertex="1" parent="1">
          <mxGeometry x="1123" y="365" width="60" height="30" as="geometry" />
        </mxCell>
        <mxCell id="cL92abnfTv1H09jEHnF7-56" style="edgeStyle=orthogonalEdgeStyle;rounded=0;orthogonalLoop=1;jettySize=auto;html=1;exitX=0.5;exitY=0;exitDx=0;exitDy=0;strokeColor=#FFFFFF;endArrow=none;endFill=0;" edge="1" parent="1" source="cL92abnfTv1H09jEHnF7-55">
          <mxGeometry relative="1" as="geometry">
            <mxPoint x="1224.5714285714287" y="416.1428571428571" as="targetPoint" />
            <Array as="points">
              <mxPoint x="1897" y="428" />
              <mxPoint x="1225" y="428" />
            </Array>
          </mxGeometry>
        </mxCell>
        <mxCell id="cL92abnfTv1H09jEHnF7-58" style="edgeStyle=orthogonalEdgeStyle;rounded=0;orthogonalLoop=1;jettySize=auto;html=1;exitX=0.5;exitY=1;exitDx=0;exitDy=0;entryX=0.5;entryY=0;entryDx=0;entryDy=0;endArrow=none;endFill=0;strokeColor=#FFFFFF;" edge="1" parent="1" source="cL92abnfTv1H09jEHnF7-55" target="cL92abnfTv1H09jEHnF7-57">
          <mxGeometry relative="1" as="geometry" />
        </mxCell>
        <mxCell id="cL92abnfTv1H09jEHnF7-55" value="&lt;font color=&quot;#ffffff&quot;&gt;Ханно&lt;/font&gt;" style="text;html=1;strokeColor=none;fillColor=none;align=center;verticalAlign=middle;whiteSpace=wrap;rounded=0;" vertex="1" parent="1">
          <mxGeometry x="1867" y="444" width="60" height="30" as="geometry" />
        </mxCell>
        <mxCell id="cL92abnfTv1H09jEHnF7-62" style="edgeStyle=orthogonalEdgeStyle;rounded=1;orthogonalLoop=1;jettySize=auto;html=1;exitX=0.5;exitY=1;exitDx=0;exitDy=0;entryX=0.5;entryY=1;entryDx=0;entryDy=0;strokeColor=#FFFFFF;endArrow=none;endFill=0;" edge="1" parent="1" source="cL92abnfTv1H09jEHnF7-57" target="cL92abnfTv1H09jEHnF7-59">
          <mxGeometry relative="1" as="geometry" />
        </mxCell>
        <mxCell id="cL92abnfTv1H09jEHnF7-57" value="&lt;font color=&quot;#ffffff&quot;&gt;Шарлотта&lt;/font&gt;" style="text;html=1;strokeColor=none;fillColor=none;align=center;verticalAlign=middle;whiteSpace=wrap;rounded=0;" vertex="1" parent="1">
          <mxGeometry x="1867" y="608" width="60" height="30" as="geometry" />
        </mxCell>
        <mxCell id="cL92abnfTv1H09jEHnF7-59" value="&lt;font color=&quot;#ffffff&quot;&gt;Петер&lt;/font&gt;" style="text;html=1;strokeColor=none;fillColor=none;align=center;verticalAlign=middle;whiteSpace=wrap;rounded=0;" vertex="1" parent="1">
          <mxGeometry x="1764" y="608" width="60" height="30" as="geometry" />
        </mxCell>
        <mxCell id="cL92abnfTv1H09jEHnF7-63" style="edgeStyle=orthogonalEdgeStyle;rounded=0;orthogonalLoop=1;jettySize=auto;html=1;exitX=0.5;exitY=0;exitDx=0;exitDy=0;endArrow=none;endFill=0;strokeColor=#FFFFFF;" edge="1" parent="1" source="cL92abnfTv1H09jEHnF7-60">
          <mxGeometry relative="1" as="geometry">
            <mxPoint x="1803.8333333333335" y="658.1666666666667" as="targetPoint" />
          </mxGeometry>
        </mxCell>
        <mxCell id="cL92abnfTv1H09jEHnF7-60" value="&lt;font color=&quot;#ffffff&quot;&gt;Элизабет&lt;/font&gt;" style="text;html=1;strokeColor=none;fillColor=none;align=center;verticalAlign=middle;whiteSpace=wrap;rounded=0;" vertex="1" parent="1">
          <mxGeometry x="1774" y="723" width="60" height="30" as="geometry" />
        </mxCell>
        <mxCell id="cL92abnfTv1H09jEHnF7-64" style="edgeStyle=orthogonalEdgeStyle;rounded=0;orthogonalLoop=1;jettySize=auto;html=1;exitX=0.5;exitY=0;exitDx=0;exitDy=0;strokeColor=#FFFFFF;endArrow=none;endFill=0;" edge="1" parent="1" source="cL92abnfTv1H09jEHnF7-61">
          <mxGeometry relative="1" as="geometry">
            <mxPoint x="1884.3333333333335" y="658.1666666666667" as="targetPoint" />
          </mxGeometry>
        </mxCell>
        <mxCell id="cL92abnfTv1H09jEHnF7-61" value="&lt;font color=&quot;#ffffff&quot;&gt;Франциска&lt;/font&gt;" style="text;html=1;strokeColor=none;fillColor=none;align=center;verticalAlign=middle;whiteSpace=wrap;rounded=0;" vertex="1" parent="1">
          <mxGeometry x="1854" y="724" width="60" height="30" as="geometry" />
        </mxCell>
        <mxCell id="cL92abnfTv1H09jEHnF7-67" value="" style="edgeStyle=orthogonalEdgeStyle;rounded=0;orthogonalLoop=1;jettySize=auto;html=1;" edge="1" parent="1" source="cL92abnfTv1H09jEHnF7-65" target="cL92abnfTv1H09jEHnF7-66">
          <mxGeometry relative="1" as="geometry" />
        </mxCell>
        <mxCell id="cL92abnfTv1H09jEHnF7-85" style="edgeStyle=orthogonalEdgeStyle;rounded=1;orthogonalLoop=1;jettySize=auto;html=1;exitX=0.5;exitY=1;exitDx=0;exitDy=0;entryX=0.5;entryY=1;entryDx=0;entryDy=0;strokeColor=#FFFFFF;endArrow=none;endFill=0;" edge="1" parent="1" source="cL92abnfTv1H09jEHnF7-65" target="cL92abnfTv1H09jEHnF7-84">
          <mxGeometry relative="1" as="geometry" />
        </mxCell>
        <mxCell id="cL92abnfTv1H09jEHnF7-65" value="&lt;font color=&quot;#ffffff&quot;&gt;Грета&lt;/font&gt;" style="text;html=1;strokeColor=none;fillColor=none;align=center;verticalAlign=middle;whiteSpace=wrap;rounded=0;" vertex="1" parent="1">
          <mxGeometry x="1689" y="444" width="60" height="30" as="geometry" />
        </mxCell>
        <mxCell id="cL92abnfTv1H09jEHnF7-69" style="edgeStyle=orthogonalEdgeStyle;rounded=0;orthogonalLoop=1;jettySize=auto;html=1;exitX=0.5;exitY=1;exitDx=0;exitDy=0;entryX=0.5;entryY=0;entryDx=0;entryDy=0;endArrow=none;endFill=0;strokeColor=#FFFFFF;" edge="1" parent="1" source="cL92abnfTv1H09jEHnF7-66" target="cL92abnfTv1H09jEHnF7-59">
          <mxGeometry relative="1" as="geometry" />
        </mxCell>
        <mxCell id="cL92abnfTv1H09jEHnF7-86" style="edgeStyle=orthogonalEdgeStyle;rounded=0;orthogonalLoop=1;jettySize=auto;html=1;exitX=0.5;exitY=0;exitDx=0;exitDy=0;endArrow=none;endFill=0;strokeColor=#FFFFFF;" edge="1" parent="1" source="cL92abnfTv1H09jEHnF7-66">
          <mxGeometry relative="1" as="geometry">
            <mxPoint x="1793" y="495" as="targetPoint" />
            <Array as="points">
              <mxPoint x="1793" y="523" />
              <mxPoint x="1793" y="496" />
            </Array>
          </mxGeometry>
        </mxCell>
        <mxCell id="cL92abnfTv1H09jEHnF7-66" value="&lt;font color=&quot;#ffffff&quot;&gt;Хельге&lt;/font&gt;" style="text;html=1;strokeColor=none;fillColor=none;align=center;verticalAlign=middle;whiteSpace=wrap;rounded=0;" vertex="1" parent="1">
          <mxGeometry x="1764" y="523" width="60" height="30" as="geometry" />
        </mxCell>
        <mxCell id="cL92abnfTv1H09jEHnF7-72" style="edgeStyle=orthogonalEdgeStyle;rounded=0;orthogonalLoop=1;jettySize=auto;html=1;exitX=0.5;exitY=0;exitDx=0;exitDy=0;strokeColor=#ffffff;endArrow=none;endFill=0;" edge="1" parent="1" source="cL92abnfTv1H09jEHnF7-70">
          <mxGeometry relative="1" as="geometry">
            <mxPoint x="1183.3333333333335" y="416" as="targetPoint" />
            <Array as="points">
              <mxPoint x="1445" y="437" />
              <mxPoint x="1183" y="437" />
            </Array>
          </mxGeometry>
        </mxCell>
        <mxCell id="cL92abnfTv1H09jEHnF7-70" value="&lt;font color=&quot;#ffffff&quot;&gt;Ханна Канвальд&lt;br&gt;&lt;/font&gt;" style="text;html=1;strokeColor=none;fillColor=none;align=center;verticalAlign=middle;whiteSpace=wrap;rounded=0;" vertex="1" parent="1">
          <mxGeometry x="1415" y="444" width="60" height="30" as="geometry" />
        </mxCell>
        <mxCell id="cL92abnfTv1H09jEHnF7-73" style="edgeStyle=orthogonalEdgeStyle;rounded=0;orthogonalLoop=1;jettySize=auto;html=1;exitX=0.5;exitY=0;exitDx=0;exitDy=0;strokeColor=#ffffff;endArrow=none;endFill=0;" edge="1" parent="1" source="cL92abnfTv1H09jEHnF7-71">
          <mxGeometry relative="1" as="geometry">
            <mxPoint x="1201.5172413793105" y="415.48275862068965" as="targetPoint" />
            <Array as="points">
              <mxPoint x="1548" y="432" />
              <mxPoint x="1202" y="432" />
            </Array>
          </mxGeometry>
        </mxCell>
        <mxCell id="cL92abnfTv1H09jEHnF7-77" style="edgeStyle=orthogonalEdgeStyle;rounded=1;orthogonalLoop=1;jettySize=auto;html=1;exitX=0.5;exitY=1;exitDx=0;exitDy=0;entryX=0.5;entryY=1;entryDx=0;entryDy=0;endArrow=none;endFill=0;strokeColor=#FFFFFF;" edge="1" parent="1" source="cL92abnfTv1H09jEHnF7-71" target="cL92abnfTv1H09jEHnF7-76">
          <mxGeometry relative="1" as="geometry" />
        </mxCell>
        <mxCell id="cL92abnfTv1H09jEHnF7-71" value="&lt;font color=&quot;#ffffff&quot;&gt;Эгон&lt;/font&gt;" style="text;html=1;strokeColor=none;fillColor=none;align=center;verticalAlign=middle;whiteSpace=wrap;rounded=0;" vertex="1" parent="1">
          <mxGeometry x="1518" y="444" width="60" height="30" as="geometry" />
        </mxCell>
        <mxCell id="cL92abnfTv1H09jEHnF7-78" style="edgeStyle=orthogonalEdgeStyle;rounded=0;orthogonalLoop=1;jettySize=auto;html=1;exitX=0.5;exitY=0;exitDx=0;exitDy=0;strokeColor=#ffffff;endArrow=none;endFill=0;" edge="1" parent="1" source="cL92abnfTv1H09jEHnF7-74">
          <mxGeometry relative="1" as="geometry">
            <mxPoint x="1593.241379310345" y="494.79310344827593" as="targetPoint" />
          </mxGeometry>
        </mxCell>
        <mxCell id="cL92abnfTv1H09jEHnF7-80" style="edgeStyle=orthogonalEdgeStyle;rounded=0;orthogonalLoop=1;jettySize=auto;html=1;exitX=0.5;exitY=1;exitDx=0;exitDy=0;entryX=0.5;entryY=0;entryDx=0;entryDy=0;endArrow=none;endFill=0;strokeColor=#FFFFFF;" edge="1" parent="1" source="cL92abnfTv1H09jEHnF7-74" target="cL92abnfTv1H09jEHnF7-79">
          <mxGeometry relative="1" as="geometry" />
        </mxCell>
        <mxCell id="cL92abnfTv1H09jEHnF7-74" value="&lt;font color=&quot;#ffffff&quot;&gt;Клаудия&lt;/font&gt;" style="text;html=1;strokeColor=none;fillColor=none;align=center;verticalAlign=middle;whiteSpace=wrap;rounded=0;" vertex="1" parent="1">
          <mxGeometry x="1563" y="519" width="60" height="30" as="geometry" />
        </mxCell>
        <mxCell id="cL92abnfTv1H09jEHnF7-76" value="&lt;font color=&quot;#ffffff&quot;&gt;Дорис&lt;/font&gt;" style="text;html=1;strokeColor=none;fillColor=none;align=center;verticalAlign=middle;whiteSpace=wrap;rounded=0;" vertex="1" parent="1">
          <mxGeometry x="1598" y="444" width="60" height="30" as="geometry" />
        </mxCell>
        <mxCell id="cL92abnfTv1H09jEHnF7-90" style="edgeStyle=orthogonalEdgeStyle;rounded=1;orthogonalLoop=1;jettySize=auto;html=1;exitX=0.5;exitY=1;exitDx=0;exitDy=0;entryX=0.5;entryY=1;entryDx=0;entryDy=0;strokeColor=#FFFFFF;endArrow=none;endFill=0;" edge="1" parent="1" source="cL92abnfTv1H09jEHnF7-79" target="cL92abnfTv1H09jEHnF7-87">
          <mxGeometry relative="1" as="geometry" />
        </mxCell>
        <mxCell id="cL92abnfTv1H09jEHnF7-79" value="&lt;font color=&quot;#ffffff&quot;&gt;Борис&lt;/font&gt;" style="text;html=1;strokeColor=none;fillColor=none;align=center;verticalAlign=middle;whiteSpace=wrap;rounded=0;" vertex="1" parent="1">
          <mxGeometry x="1563" y="609" width="60" height="30" as="geometry" />
        </mxCell>
        <mxCell id="cL92abnfTv1H09jEHnF7-84" value="&lt;font color=&quot;#ffffff&quot;&gt;Бернд&lt;/font&gt;" style="text;html=1;strokeColor=none;fillColor=none;align=center;verticalAlign=middle;whiteSpace=wrap;rounded=0;" vertex="1" parent="1">
          <mxGeometry x="1780" y="445" width="60" height="30" as="geometry" />
        </mxCell>
        <mxCell id="cL92abnfTv1H09jEHnF7-88" style="edgeStyle=orthogonalEdgeStyle;rounded=0;orthogonalLoop=1;jettySize=auto;html=1;exitX=0.5;exitY=0;exitDx=0;exitDy=0;strokeColor=#ffffff;endArrow=none;endFill=0;" edge="1" parent="1">
          <mxGeometry relative="1" as="geometry">
            <mxPoint x="1748" y="498" as="targetPoint" />
            <mxPoint x="1686" y="608.9999999999999" as="sourcePoint" />
            <Array as="points">
              <mxPoint x="1686" y="552" />
              <mxPoint x="1748" y="552" />
              <mxPoint x="1748" y="495" />
            </Array>
          </mxGeometry>
        </mxCell>
        <mxCell id="cL92abnfTv1H09jEHnF7-87" value="&lt;font color=&quot;#ffffff&quot;&gt;Регина&lt;/font&gt;" style="text;html=1;strokeColor=none;fillColor=none;align=center;verticalAlign=middle;whiteSpace=wrap;rounded=0;" vertex="1" parent="1">
          <mxGeometry x="1656" y="608" width="60" height="30" as="geometry" />
        </mxCell>
        <mxCell id="cL92abnfTv1H09jEHnF7-8" value="&lt;font color=&quot;#ffffff&quot;&gt;Себастьян&lt;/font&gt;" style="text;html=1;strokeColor=none;fillColor=none;align=center;verticalAlign=middle;whiteSpace=wrap;rounded=0;" vertex="1" parent="1">
          <mxGeometry x="975.5" y="518" width="60" height="30" as="geometry" />
        </mxCell>
        <mxCell id="cL92abnfTv1H09jEHnF7-93" style="edgeStyle=orthogonalEdgeStyle;rounded=0;orthogonalLoop=1;jettySize=auto;html=1;exitX=0.5;exitY=0;exitDx=0;exitDy=0;strokeColor=#FFFFFF;endArrow=none;endFill=0;" edge="1" parent="1" source="cL92abnfTv1H09jEHnF7-92">
          <mxGeometry relative="1" as="geometry">
            <mxPoint x="1634.4117647058824" y="660.8235294117646" as="targetPoint" />
          </mxGeometry>
        </mxCell>
        <mxCell id="cL92abnfTv1H09jEHnF7-92" value="&lt;font color=&quot;#ffffff&quot;&gt;Бартош Тидеманн&lt;br&gt;&lt;/font&gt;" style="text;html=1;strokeColor=none;fillColor=none;align=center;verticalAlign=middle;whiteSpace=wrap;rounded=0;" vertex="1" parent="1">
          <mxGeometry x="1604" y="725" width="60" height="30" as="geometry" />
        </mxCell>
      </root>
    </mxGraphModel>
  </diagram>
</mxfile>
